<?xml version="1.0" encoding="UTF-8" standalone="no"?>
        <svg 
    viewBox="14.6484375 -76.025390625 439.892578125 50.537109375"
    width="425.244140625"
    height="126.5625"
   xmlns="http://www.w3.org/2000/svg"
   xmlns:svg="http://www.w3.org/2000/svg">
   <path d="M57.71-2.78L57.71-2.78Q58.74-5.57 63.72-9.52L63.72-9.52Q69.29-14.21 77.71-23.44Q86.13-32.67 86.43-34.28L86.43-34.28Q86.13-34.57 84.16-34.57Q82.18-34.57 78.96-34.28L78.96-34.28Q77.05-34.13 75.73-34.13L75.73-34.13Q73.54-34.13 72.14-34.50Q70.75-34.86 68.99-36.91L68.99-36.91L65.48-39.55L65.33-57.57Q64.89-64.89 64.89-69.14L64.89-69.14Q64.89-71.19 65.11-73.83Q65.33-76.46 66.06-77.34L66.06-77.34Q66.80-78.37 69.58-78.74Q72.36-79.10 79.98-79.39L79.98-79.39L92.72-79.98L92.72-90.23L77.20-90.23Q66.65-90.23 63.72-90.45Q60.79-90.67 60.50-91.99L60.50-91.99Q59.47-93.90 59.47-95.36Q59.47-96.83 60.79-98.44L60.79-98.44Q61.38-99.46 64.53-99.83Q67.68-100.20 77.64-100.49L77.64-100.49L93.16-101.07L93.46-105.76Q93.46-107.81 93.97-109.72Q94.48-111.62 95.36-112.35L95.36-112.35Q96.39-113.67 97.12-113.75Q97.85-113.82 98.00-113.82L98.00-113.82Q99.32-113.82 101.66-112.94L101.66-112.94Q103.27-112.65 103.64-111.47Q104.00-110.30 104.00-106.49L104.00-106.49Q104.00-105.76 104.00-105.03L104.00-105.03Q104.00-101.37 105.83-100.56Q107.67-99.76 114.99-99.76L114.99-99.76Q117.04-99.76 119.53-99.76L119.53-99.76Q126.71-99.76 129.05-99.46Q131.40-99.17 132.57-97.85L132.57-97.85Q134.03-96.24 134.11-95.21Q134.18-94.19 134.18-94.04L134.18-94.04Q134.18-92.43 133.01-90.67L133.01-90.67Q132.57-89.36 130.81-89.28Q129.05-89.21 127.44-89.21L127.44-89.21Q124.22-89.21 118.07-89.36L118.07-89.36L104.00-90.23L104.00-79.98L116.46-79.69Q124.37-79.39 127.00-79.03Q129.64-78.66 130.37-77.49L130.37-77.49Q131.40-73.54 131.47-64.75Q131.54-55.96 131.54-54.35L131.54-54.35Q131.54-41.02 130.37-36.62L130.37-36.62Q129.93-34.86 128.54-34.50Q127.15-34.13 124.22-34.13L124.22-34.13Q122.31-34.13 119.53-34.28L119.53-34.28Q115.43-34.28 112.65-34.06Q109.86-33.84 109.28-33.25L109.28-33.25Q109.28-32.96 112.87-29.00Q116.46-25.05 122.17-19.48L122.17-19.48Q127.73-14.06 131.47-10.11Q135.21-6.15 135.35-5.57L135.35-5.57Q135.35-4.83 134.99-3.88Q134.62-2.93 133.89-2.20L133.89-2.20Q132.42 0 130.52 0L130.52 0Q129.79 0 127.95-0.66Q126.12-1.32 120.70-6.59L120.70-6.59Q117.48-9.52 114.48-12.30Q111.47-15.09 109.86-16.41L109.86-16.41Q108.25-17.72 107.08-19.04Q105.91-20.36 105.62-21.09L105.62-21.09Q104.88-23.00 104.44-23.00L104.44-23.00Q104.00-23.00 103.64-20.51Q103.27-18.02 103.27-7.47L103.27-7.47Q103.27 4.69 102.47 7.62Q101.66 10.55 98.88 10.55L98.88 10.55Q98.58 10.55 98.29 10.55L98.29 10.55Q98.00 10.55 97.85 10.55L97.85 10.55Q95.07 10.55 94.04 6.74Q93.02 2.93 92.72-8.79L92.72-8.79Q92.72-14.50 92.43-18.46Q92.14-22.41 91.85-22.71L91.85-22.71Q91.85-22.71 91.70-22.71L91.70-22.71Q91.41-22.71 90.09-21.39Q88.77-20.07 86.57-17.72L86.57-17.72Q74.71-3.52 69.80 0.07Q64.89 3.66 62.40 3.66L62.40 3.66Q60.64 3.66 59.47 2.34L59.47 2.34Q57.42 0.73 57.42-1.17L57.42-1.17Q57.42-2.05 57.71-2.78ZM15.09-99.32L15.09-99.32Q15.38-107.67 16.70-107.67L16.70-107.67Q16.70-107.67 16.70-107.67L16.70-107.67Q17.87-108.69 21.53-108.91Q25.20-109.13 36.04-109.13L36.04-109.13Q49.22-109.13 52.51-108.47Q55.81-107.81 55.81-105.18L55.81-105.18Q55.81-105.03 55.81-104.74L55.81-104.74Q55.52-102.54 52.73-94.92Q49.95-87.30 47.61-82.76L47.61-82.76Q47.02-81.59 47.02-80.27L47.02-80.27Q47.02-79.83 47.17-78.66Q47.31-77.49 49.22-72.07L49.22-72.07Q51.86-64.16 53.03-55.52Q54.20-46.88 54.20-42.77L54.20-42.77Q54.20-39.55 53.61-37.79L53.61-37.79Q52.29-34.13 47.31-34.13L47.31-34.13Q47.17-34.13 44.38-34.20Q41.60-34.28 33.11-38.53L33.11-38.53Q29.88-39.84 27.91-40.80Q25.93-41.75 25.78-41.75L25.78-41.75L25.78-34.57Q25.78-27.69 25.93-17.72L25.93-17.72Q26.37-6.74 26.37-1.03L26.37-1.03Q26.37 1.76 26.15 4.83Q25.93 7.91 24.90 8.35L24.90 8.35Q23.14 10.11 21.39 10.11L21.39 10.11Q20.65 10.11 18.97 9.23Q17.29 8.35 15.67 3.66L15.67 3.66Q15.23 1.76 14.94-12.96Q14.65-27.69 14.65-52.73L14.65-52.73Q14.65-90.67 15.09-99.32ZM26.22-51.71L26.22-51.71Q26.51-51.12 26.95-51.12L26.95-51.12Q27.10-51.12 27.25-51.12L27.25-51.12Q28.56-51.42 29.88-51.42L29.88-51.42Q30.91-51.42 32.52-51.05Q34.13-50.68 37.06-48.49L37.06-48.49Q40.72-45.56 42.19-45.56L42.19-45.56Q42.63-45.56 42.85-45.92Q43.07-46.29 43.07-47.61L43.07-47.61Q43.07-50.24 42.04-56.40L42.04-56.40Q41.02-62.84 38.75-68.99Q36.47-75.15 34.72-76.46L34.72-76.46Q33.98-77.05 33.98-78.22L33.98-78.22Q33.98-78.96 34.35-80.49Q34.72-82.03 37.06-86.72L37.06-86.72Q38.67-89.65 39.55-92.07Q40.43-94.48 40.72-95.51L40.72-95.51Q40.72-95.65 40.72-95.80L40.72-95.80Q40.72-96.53 39.55-96.90Q38.38-97.27 33.69-97.56L33.69-97.56L26.22-97.85L25.93-77.78L25.93-54.35Q25.93-53.91 25.93-53.47L25.93-53.47Q25.93-52.29 26.22-51.71ZM104.00-47.17L104.00-43.51L120.70-44.09L120.85-48.34L121.14-52.29L113.23-52.29Q109.86-52.29 107.45-52.15Q105.03-52.00 104.88-51.42L104.88-51.42Q104.59-51.12 104.30-49.95Q104.00-48.78 104.00-47.17L104.00-47.17ZM83.50-52.29L75.59-52.29L75.88-48.34L76.03-44.09L84.52-43.80Q86.87-43.65 88.48-43.65L88.48-43.65Q90.97-43.65 91.85-43.95Q92.72-44.24 92.72-45.41L92.72-45.41Q92.72-45.56 92.72-45.85L92.72-45.85Q92.72-46.73 92.58-47.90Q92.43-49.07 92.14-50.10L92.14-50.10Q91.85-51.71 90.45-52.00Q89.06-52.29 83.50-52.29L83.50-52.29ZM81.59-69.58L75.59-69.14L76.03-62.26L92.14-62.26L92.14-65.92Q92.14-66.36 92.14-66.80L92.14-66.80Q92.14-69.29 91.11-69.58Q90.09-69.87 88.04-69.87L88.04-69.87Q85.69-69.87 81.59-69.58L81.59-69.58ZM120.85-69.43L105.03-69.43L105.03-62.26L120.41-62.26L120.70-65.63L120.85-69.43ZM217.53-56.98L217.53-56.98Q217.97-59.33 221.19-61.23L221.19-61.23Q230.42-66.94 237.16-72.00Q243.90-77.05 244.04-78.37L244.04-78.37Q244.04-78.81 243.16-79.91Q242.29-81.01 240.97-82.62L240.97-82.62L238.33-85.55Q237.01-87.01 236.72-87.89L236.72-87.89Q236.13-88.62 235.77-88.84Q235.40-89.06 235.25-89.06L235.25-89.06Q234.96-89.06 234.81-88.62L234.81-88.62Q234.81-88.04 233.94-86.72Q233.06-85.40 231.74-83.94L231.74-83.94Q229.39-80.42 228.15-80.13Q226.90-79.83 226.46-79.83L226.46-79.83Q224.71-79.83 222.95-81.45L222.95-81.45Q221.34-82.62 221.34-84.81L221.34-84.81Q221.34-85.11 221.48-86.50Q221.63-87.89 224.12-92.29L224.12-92.29Q225.44-94.48 226.83-97.78Q228.22-101.07 229.54-103.86L229.54-103.86Q231.74-109.72 232.91-111.18Q234.08-112.65 237.30-112.94L237.30-112.94Q241.99-113.82 249.17-113.82L249.17-113.82Q252.69-113.82 261.04-113.38Q269.38-112.94 273.63-111.04L273.63-111.04Q274.37-110.45 274.95-109.72Q275.54-108.98 275.54-107.81L275.54-107.81Q274.95-105.47 271.00-97.34Q267.04-89.21 263.82-84.38L263.82-84.38L262.06-81.74L267.04-78.08Q269.09-76.46 272.83-74.27Q276.56-72.07 279.93-70.17L279.93-70.17Q285.21-67.53 286.82-66.21Q288.43-64.89 288.43-63.28L288.43-63.28Q288.57-62.55 288.57-61.96L288.57-61.96Q288.57-58.45 286.67-58.23Q284.77-58.01 284.18-58.01L284.18-58.01Q280.37-58.01 273.63-61.52L273.63-61.52Q270.41-62.84 266.89-64.82Q263.38-66.80 261.04-68.55L261.04-68.55Q256.79-71.48 255.83-71.70Q254.88-71.92 254.44-71.92L254.44-71.92Q253.27-71.92 252.54-70.90L252.54-70.90Q250.93-68.85 242.80-62.55Q234.67-56.25 229.54-53.03L229.54-53.03Q225.88-50.68 224.49-50.61Q223.10-50.54 222.95-50.54L222.95-50.54Q220.46-50.54 218.85-52.44L218.85-52.44Q217.38-54.05 217.38-55.96L217.38-55.96Q217.38-56.40 217.53-56.98ZM212.70-11.13L212.70-11.13Q212.70-11.43 212.70-11.57L212.70-11.57Q212.70-14.94 216.36-15.89Q220.02-16.85 229.10-16.85L229.10-16.85Q231.45-16.85 234.08-16.85L234.08-16.85L246.53-16.85L246.97-21.97L239.94-21.97Q233.50-21.97 231.15-22.85Q228.81-23.73 228.81-26.37L228.81-26.37Q228.81-29.88 230.64-30.91Q232.47-31.93 238.62-32.23L238.62-32.23L246.53-32.67L246.53-40.43L239.65-40.87Q234.08-41.16 232.10-42.26Q230.13-43.36 230.13-45.56L230.13-45.56Q230.13-45.85 230.13-46.14L230.13-46.14Q230.42-49.07 232.54-50.10Q234.67-51.12 238.33-51.12L238.33-51.12Q239.36-51.12 240.38-51.12L240.38-51.12Q244.92-51.12 245.95-51.56Q246.97-52.00 246.97-53.61L246.97-53.61Q246.97-54.64 247.41-56.10Q247.85-57.57 248.58-58.30L248.58-58.30Q250.49-60.94 252.69-60.94L252.69-60.94Q253.71-60.94 255.91-59.91Q258.11-58.89 258.40-53.76L258.40-53.76L258.40-51.12L265.43-51.12Q269.09-51.12 271.07-50.90Q273.05-50.68 273.93-49.80L273.93-49.80Q275.39-48.49 275.39-47.31L275.39-47.31Q275.39-47.17 275.32-46.51Q275.24-45.85 273.34-44.09L273.34-44.09Q272.02-42.48 270.34-42.11Q268.65-41.75 264.40-41.75L264.40-41.75L257.23-41.75L257.52-37.21L257.52-32.52L264.11-32.23Q269.09-31.93 270.70-31.13Q272.31-30.32 272.90-27.98L272.90-27.98Q273.34-27.10 273.34-26.22L273.34-26.22Q273.34-24.90 271.80-24.10Q270.26-23.29 264.70-22.71L264.70-22.71L257.81-22.41L257.81-15.53L268.95-15.53Q278.91-15.38 281.47-14.79Q284.03-14.21 284.03-12.45L284.03-12.45Q284.03-12.01 283.89-11.57L283.89-11.57Q283.89-11.28 283.89-10.84L283.89-10.84Q283.89-7.76 281.54-6.81Q279.20-5.86 272.61-5.86L272.61-5.86Q271.00-5.86 269.09-5.86L269.09-5.86L257.52-5.86L257.08 2.05Q256.79 6.88 256.27 8.72Q255.76 10.55 254.44 11.57L254.44 11.57Q252.98 12.74 251.37 12.74L251.37 12.74Q251.22 12.74 250.20 12.67Q249.17 12.60 247.56 10.99L247.56 10.99Q246.97 10.84 246.61 8.20Q246.24 5.57 245.95 2.05L245.95 2.05L245.36-6.15L231.15-6.30Q220.17-6.59 216.43-7.54Q212.70-8.50 212.70-10.84L212.70-10.84Q212.70-10.99 212.70-11.13ZM161.57-61.08L161.57-61.08Q161.57-65.63 163.18-66.80L163.18-66.80Q164.79-68.26 167.29-68.26Q169.78-68.26 171.09-66.94L171.09-66.94Q171.53-66.21 172.12-62.62Q172.71-59.03 173.14-54.35L173.14-54.35Q173.44-49.66 173.95-46.36Q174.46-43.07 175.05-42.77L175.05-42.77Q175.34-42.48 176.00-42.41Q176.66-42.33 177.10-42.33L177.10-42.33Q177.83-42.33 178.71-42.48L178.71-42.48L181.35-43.07L181.35-68.85Q181.35-82.76 181.64-88.99Q181.93-95.21 182.67-95.80L182.67-95.80Q183.98-96.83 185.74-96.83L185.74-96.83Q186.18-96.83 187.57-96.68Q188.96-96.53 190.58-94.63L190.58-94.63Q191.31-93.60 191.75-88.11Q192.19-82.62 192.48-67.82L192.48-67.82L192.92-43.21L200.83-43.21L201.42-54.35Q201.71-63.87 202.95-66.50Q204.20-69.14 206.25-69.14L206.25-69.14Q206.84-69.14 207.71-68.85L207.71-68.85Q211.67-68.26 212.18-66.21Q212.70-64.16 212.70-60.35L212.70-60.35Q212.70-56.98 212.40-51.71L212.40-51.71Q212.40-45.41 211.89-40.94Q211.38-36.47 211.08-35.30L211.08-35.30Q210.35-33.54 204.71-32.74Q199.07-31.93 183.98-31.93L183.98-31.93Q180.91-31.79 178.27-31.79L178.27-31.79Q168.75-31.79 165.97-33.69Q163.18-35.60 162.60-46.44L162.60-46.44Q161.57-56.40 161.57-61.08ZM239.50-96.83L239.50-96.83Q239.94-95.51 242.29-94.48L242.29-94.48Q243.60-93.90 245.43-92.58Q247.27-91.26 248.88-89.65L248.88-89.65L252.25-86.57L257.23-93.90Q259.42-97.12 260.74-99.32Q262.06-101.51 262.06-101.81L262.06-101.81Q262.06-102.10 260.08-102.32Q258.11-102.54 255.18-102.83L255.18-102.83Q252.25-103.13 249.39-103.49Q246.53-103.86 244.92-104.15L244.92-104.15Q243.90-104.30 243.16-104.30L243.16-104.30Q242.29-104.30 241.63-104.00Q240.97-103.71 240.38-101.51L240.38-101.51Q239.36-99.02 239.36-97.56L239.36-97.56Q239.36-97.12 239.50-96.83ZM367.24-42.33L367.24-42.33Q367.68-43.21 369.95-43.58Q372.22-43.95 377.49-43.95L377.49-43.95L386.43-44.24L387.01-47.61Q387.16-49.22 388.26-50.83Q389.36-52.44 390.67-53.47L390.67-53.47Q393.60-56.10 395.00-56.18Q396.39-56.25 396.53-56.25L396.53-56.25Q399.02-56.25 400.63-54.05L400.63-54.05Q401.95-52.15 401.95-50.46Q401.95-48.78 400.63-47.61L400.63-47.61Q400.20-47.17 399.76-46.51Q399.32-45.85 399.32-45.26L399.32-45.26Q399.32-45.26 399.32-45.12L399.32-45.12Q399.32-44.53 401.95-44.24Q404.59-43.95 412.21-43.95L412.21-43.95Q419.09-43.95 422.68-43.58Q426.27-43.21 427.00-42.63L427.00-42.63Q428.32-42.33 428.61-37.72Q428.91-33.11 429.20-18.16L429.20-18.16Q429.35-10.55 429.35-5.27L429.35-5.27Q429.35-2.64 429.27 1.46Q429.20 5.57 428.91 6.45L428.91 6.45Q428.61 7.47 422.83 7.69Q417.04 7.91 399.32 8.20L399.32 8.20Q390.09 8.35 384.08 8.35L384.08 8.35Q378.08 8.35 373.97 8.13Q369.87 7.91 369.58 6.88L369.58 6.88Q368.55 6.15 368.26 3.88Q367.97 1.61 367.68-2.78L367.68-2.78Q367.68-6.59 367.53-9.59Q367.38-12.60 367.38-13.92L367.38-13.92Q366.65-22.56 366.58-27.69Q366.50-32.81 366.50-33.98L366.50-33.98Q366.50-40.87 367.24-42.33ZM311.28-86.13L311.28-86.13Q312.01-87.16 314.14-87.74Q316.26-88.33 321.53-88.48L321.53-88.48L330.47-89.06L330.76-99.32Q330.76-105.18 331.20-107.96Q331.64-110.74 332.67-111.47L332.67-111.47Q333.98-113.09 335.30-113.16Q336.62-113.23 336.77-113.23L336.77-113.23Q338.82-113.23 340.28-112.06L340.28-112.06Q341.31-110.89 341.31-100.20L341.31-100.20L341.31-89.36L346.88-89.36Q351.56-89.36 354.13-88.04Q356.69-86.72 356.69-84.38L356.69-84.38Q356.40-82.18 354.42-80.64Q352.44-79.10 349.80-79.10L349.80-79.10Q346.29-79.10 346.07-78.37Q345.85-77.64 345.85-77.49L345.85-77.49Q345.85-76.17 348.49-73.24L348.49-73.24Q351.42-69.87 352.73-67.38Q354.05-64.89 354.05-63.57L354.05-63.57Q354.05-63.43 354.05-63.28L354.05-63.28Q354.05-62.70 353.91-62.04Q353.76-61.38 353.76-61.08L353.76-61.08Q353.47-59.77 351.86-58.45Q350.24-57.13 348.78-57.13L348.78-57.13Q347.61-57.13 346.07-58.23Q344.53-59.33 342.92-61.08L342.92-61.08L339.26-65.33L339.70-29.44Q339.84-19.34 339.84-11.13L339.84-11.13Q339.84-7.03 339.77 0.22Q339.70 7.47 339.55 8.79L339.55 8.79Q337.94 11.72 335.60 11.72L335.60 11.72Q335.01 11.72 333.18 11.28Q331.35 10.84 330.03 6.45L330.03 6.45Q329.44 4.54 329.22-4.17Q329.00-12.89 329.00-25.49L329.00-25.49L329.00-55.08Q329.00-55.08 329.00-55.08L329.00-55.08Q328.71-55.08 327.25-52.59Q325.78-50.10 323.73-45.56L323.73-45.56Q319.48-37.35 317.80-35.89Q316.11-34.42 315.09-34.42L315.09-34.42Q313.77-34.42 312.60-35.60L312.60-35.60Q310.84-36.77 310.84-39.55L310.84-39.55Q310.84-39.84 310.91-41.53Q310.99-43.21 312.89-46.88L312.89-46.88Q313.92-48.78 316.04-53.76Q318.16-58.74 320.51-64.60L320.51-64.60L326.07-78.22L319.92-77.78Q316.55-77.78 314.87-78.15Q313.18-78.52 312.01-79.54L312.01-79.54Q310.25-80.86 310.18-81.81Q310.11-82.76 310.11-82.91L310.11-82.91Q310.11-84.52 311.28-86.13ZM399.61-100.93L399.61-100.93Q399.90-108.11 401.66-109.86L401.66-109.86Q403.27-111.18 405.76-111.18Q408.25-111.18 409.86-109.57L409.86-109.57Q410.45-108.84 410.82-107.15Q411.18-105.47 411.18-103.27L411.18-103.27L411.18-98.29L420.12-97.56Q427.29-96.97 430.30-95.80Q433.30-94.63 433.89-91.70L433.89-91.70Q434.03-90.97 434.03-90.23L434.03-90.23Q434.03-89.65 433.81-88.99Q433.59-88.33 432.57-87.16L432.57-87.16Q431.25-86.43 428.91-86.06Q426.56-85.69 421.00-85.69L421.00-85.69L411.18-85.69L412.06-78.81Q412.50-70.61 414.48-68.48Q416.46-66.36 422.31-66.36L422.31-66.36Q423.05-66.36 423.93-66.36L423.93-66.36Q424.80-66.21 425.54-66.21L425.54-66.21Q427.00-66.21 427.66-66.72Q428.32-67.24 429.20-69.87L429.20-69.87Q430.22-73.54 431.47-74.27Q432.71-75 433.45-75L433.45-75Q434.62-75 435.94-74.27L435.94-74.27Q438.13-72.95 439.01-70.61Q439.89-68.26 439.89-62.99L439.89-62.99Q439.89-60.06 439.53-58.59Q439.16-57.13 437.55-55.81L437.55-55.81Q436.23-54.20 434.84-53.76Q433.45-53.32 431.54-53.32L431.54-53.32Q430.37-53.32 428.91-53.47L428.91-53.47Q423.34-53.47 417.26-55.08Q411.18-56.69 407.81-59.33L407.81-59.33Q404.88-60.79 403.27-65.99Q401.66-71.19 400.63-82.18L400.63-82.18Q399.61-91.55 399.61-98.14L399.61-98.14Q399.61-99.61 399.61-100.93ZM359.91-61.23L359.91-61.23Q360.35-62.40 362.11-64.01L362.11-64.01Q363.43-65.04 364.23-66.21Q365.04-67.38 365.04-67.97L365.04-67.97Q365.33-68.55 365.33-74.56Q365.33-80.57 365.04-89.06L365.04-89.06Q364.89-95.95 364.89-100.49L364.89-100.49Q364.89-104.88 365.11-107.67Q365.33-110.45 366.94-111.18L366.94-111.18Q368.70-113.09 370.17-113.09Q371.63-113.09 373.83-111.47L373.83-111.47Q375.15-110.45 375.66-108.69Q376.17-106.93 376.17-102.98L376.17-102.98L376.17-96.39L385.11-96.24Q389.79-96.24 392.36-95.80Q394.92-95.36 395.65-94.34L395.65-94.34Q397.27-93.02 397.27-91.33Q397.27-89.65 395.65-87.45L395.65-87.45Q394.63-85.84 392.65-85.33Q390.67-84.81 385.40-84.52L385.40-84.52L376.90-84.38L376.90-76.46Q376.76-74.71 376.76-73.24L376.76-73.24Q376.76-71.78 376.98-70.02Q377.20-68.26 377.49-67.97L377.49-67.97Q377.78-67.82 378.52-67.82L378.52-67.82Q379.25-67.82 381.15-68.04Q383.06-68.26 386.72-68.70L386.72-68.70Q391.55-69.43 393.46-69.43L393.46-69.43Q393.75-69.43 394.70-69.36Q395.65-69.29 396.39-67.68L396.39-67.68Q397.56-66.65 397.63-66.06Q397.71-65.48 397.71-65.33L397.71-65.33Q397.71-64.31 397.27-62.99L397.27-62.99Q396.68-60.35 392.07-58.89Q387.45-57.42 375.59-55.81L375.59-55.81Q369.43-54.64 366.06-54.64L366.06-54.64Q364.60-54.64 362.48-55.08Q360.35-55.52 359.77-58.74L359.77-58.74Q359.62-59.33 359.62-59.91L359.62-59.91Q359.62-60.50 359.91-61.23ZM379.10-7.32L379.54-2.05L418.07-2.05L418.65-12.60L411.18-12.60Q407.81-12.60 402.25-12.74Q396.68-12.89 391.41-13.18L391.41-13.18Q386.43-13.33 382.98-13.33Q379.54-13.33 379.25-13.18L379.25-13.18Q379.10-12.89 379.10-11.28L379.10-11.28L379.10-7.32ZM377.49-33.98L377.49-23.88L418.36-23.88L418.36-33.40L377.49-33.98Z"/>
    </svg>
        