<svg width="257" height="257" version="1.1" xmlns="http://www.w3.org/2000/svg" xmlns:xlink="http://www.w3.org/1999/xlink"><path d="M234.64 130.30L234.64 130.30L209.46 137.75Q191.21 141.86 176.82 131.07L176.82 131.07L136.72 103.57Q136.21 103.06 135.70 102.80L135.70 102.80Q105.63 131.58 81.47 139.55L81.47 139.55Q79.93 140.32 78.13 140.84L78.13 140.84L74.79 154.46Q72.47 160.37 68.88 160.37L68.88 160.37Q66.56 157.28 65.28 152.66L65.28 152.66L61.94 152.66Q35.72 162.68 26.98 168.08L26.98 168.08Q19.28 172.70 13.62 178.62L13.62 178.62Q8.22 178.62 1.80 172.19L1.80 172.19Q1.80 169.62 5.40 164.99L5.40 164.99Q6.42 163.20 6.94 161.91L6.94 161.91Q11.05 151.63 8.22 138.27L8.22 138.27Q6.94 131.84 4.11 126.96L4.11 126.96Q3.34 118.73 13.88 125.93L13.88 125.93Q17.99 129.01 19.79 131.07L19.79 131.07Q20.56 135.95 20.05 154.97L20.05 154.97Q19.79 157.28 19.79 159.34L19.79 159.34Q20.56 159.85 23.13 159.85L23.13 159.85Q30.58 155.49 38.55 152.66L38.55 152.66L39.32 150.86L38.81 92.26Q38.81 71.19 31.35 63.48L31.35 63.48Q31.35 59.88 33.67 58.60L33.67 58.60Q48.57 58.60 56.28 68.36L56.28 68.36Q53.20 86.35 50.12 136.21L50.12 136.21L49.09 148.29L64.51 143.66L66.31 141.86L67.85 125.16L66.31 114.11Q66.05 108.45 71.96 111.02L71.96 111.02Q77.87 113.34 80.18 118.99L80.18 118.99L80.70 121.56L78.39 134.41Q78.39 135.95 78.90 137.50L78.90 137.50Q104.86 119.76 127.47 96.63L127.47 96.63L107.43 80.18Q96.89 91.24 88.67 95.60L88.67 95.60L85.58 95.60L85.58 93.81Q113.34 64.25 123.36 40.61L123.36 40.61L122.08 32.13Q122.08 30.33 123.36 29.81L123.36 29.81Q130.04 30.58 135.95 36.24L135.95 36.24Q137.75 38.04 138.27 39.58L138.27 39.58Q138.78 40.09 138.78 41.63L138.78 41.63Q138.78 43.43 127.47 57.05L127.47 57.05Q126.44 58.34 125.93 58.60L125.93 58.60L144.18 55.77Q145.98 55.26 147.52 54.74L147.52 54.74Q155.23 51.91 158.31 51.91L158.31 51.91Q164.74 51.91 172.70 58.34L172.70 58.34L175.79 61.42Q174.25 63.74 167.56 69.65L167.56 69.65L164.99 72.22L141.86 97.15Q162.42 109.74 174.76 113.59L174.76 113.59Q175.53 113.85 176.05 113.85L176.05 113.85L233.87 127.99Q234.64 127.99 234.64 130.30ZM148.80 65.02L148.80 65.02L147.52 64.25L129.27 65.79L123.62 64.76Q122.85 64.51 122.33 64.25L122.33 64.25L110.51 77.10Q112.57 78.39 131.84 90.72L131.84 90.72Q144.18 77.10 148.29 66.82L148.29 66.82Q148.55 65.79 148.80 65.02ZM199.95 188.90L199.95 188.90L196.35 190.44Q158.06 190.44 139.04 192.75L139.04 192.75L137.75 243.12Q137.24 256.23 132.61 261.88L132.61 261.88Q129.78 261.88 128.50 259.31L128.50 259.31Q125.93 237.73 125.93 194.55L125.93 194.55Q116.94 194.04 95.86 199.43L95.86 199.43Q84.04 202.52 76.84 203.03L76.84 203.03Q71.96 203.29 67.85 199.95L67.85 199.95Q65.79 198.66 64.51 196.61L64.51 196.61Q64.51 194.29 68.62 193.78L68.62 193.78L125.93 186.07L126.19 172.96L107.68 175.02Q97.92 175.02 97.40 170.13L97.40 170.13Q104.60 167.82 125.93 164.48L125.93 164.48Q126.70 161.91 126.70 149.32L126.70 149.32L105.88 152.14Q97.66 152.14 93.81 147.00L93.81 147.00Q95.60 145.98 123.36 142.38L123.36 142.38Q125.16 142.12 126.19 141.86L126.19 141.86Q126.19 135.18 120.79 124.13L120.79 124.13Q120.79 121.56 123.62 120.28L123.62 120.28Q131.58 120.28 138.27 125.16L138.27 125.16Q142.12 127.73 142.12 130.81L142.12 130.81L140.84 138.27L140.84 138.52L157.03 135.95Q166.54 135.44 168.59 140.32L168.59 140.32Q168.59 142.12 166.54 143.15L166.54 143.15Q154.20 143.92 140.06 146.75L140.06 146.75L139.29 160.88Q140.58 160.88 145.72 159.08L145.72 159.08Q153.43 156.51 161.40 158.57L161.40 158.57Q168.34 160.11 169.11 164.99L169.11 164.99L167.05 166.28L139.29 170.13L138.52 183.76Q143.41 183.76 163.71 179.64L163.71 179.64Q187.10 174.50 195.83 181.44L195.83 181.44Q197.12 182.47 198.40 183.76L198.40 183.76Q199.95 186.07 199.95 188.90Z" stroke="#000" fill="black" /></svg>