<svg width="257" height="257" version="1.1" xmlns="http://www.w3.org/2000/svg" xmlns:xlink="http://www.w3.org/1999/xlink"><path d="M155.23 20.58L155.23 20.58Q166.28 22.63 172.45 31.89L172.45 31.89Q172.45 34.20 169.62 44.48L169.62 44.48L169.11 46.54Q166.28 59.90 166.28 68.64L166.28 68.64L167.31 68.64L183.75 57.59Q189.92 52.45 191.21 46.02L191.21 46.02L193.01 45.51L196.35 46.02Q204.83 52.96 206.63 58.36L206.63 58.36Q206.63 58.87 206.88 59.39L206.88 59.39Q206.88 62.73 199.18 64.27L199.18 64.27L196.86 64.78Q176.82 71.98 166.28 74.81L166.28 74.81Q165.25 84.31 166.79 93.57L166.79 93.57Q167.82 98.45 169.36 103.08L169.36 103.08Q177.84 112.07 203.54 107.44L203.54 107.44Q204.06 107.44 205.34 107.19L205.34 107.19Q210.74 103.59 214.08 87.66L214.08 87.66Q216.14 78.66 217.68 75.58L217.68 75.58Q218.96 75.83 220.51 78.40L220.51 78.40Q222.05 93.05 224.36 102.56L224.36 102.56L227.19 111.81L227.19 111.81Q228.22 122.09 199.69 123.12L199.69 123.12Q197.63 123.12 195.83 123.12L195.83 123.12Q176.56 123.12 165.51 114.13L165.51 114.13Q157.03 104.87 156.77 87.66L156.77 87.66L156.26 33.17Q156.26 32.66 153.69 26.75L153.69 26.75Q151.89 21.86 155.23 20.58ZM151.63 73.26L151.63 73.26Q134.67 80.20 118.48 80.72L118.48 80.72Q118.48 81.49 117.45 106.67L117.45 106.67L117.45 110.01L120.79 110.01L141.61 101.53L142.89 102.05Q142.89 104.36 139.04 107.70L139.04 107.70L111.02 131.09Q107.43 134.17 104.60 137.26L104.60 137.26Q100.49 136.49 97.66 129.55L97.66 129.55Q97.15 128.26 96.89 127.75L96.89 127.75Q96.89 123.12 102.54 114.13L102.54 114.13Q106.40 108.47 106.91 104.36L106.91 104.36Q109.48 86.11 107.43 70.69L107.43 70.69Q105.63 57.33 100.23 47.31L100.23 47.31Q100.23 44.99 102.29 44.22L102.29 44.22Q109.48 44.22 118.48 52.70L118.48 52.70L117.45 60.93L117.45 61.18L117.45 73.26L139.81 68.64Q151.63 67.35 151.63 73.26ZM177.33 229.52L167.31 213.33Q145.46 213.33 126.70 216.93L126.70 216.93Q126.19 223.61 124.64 225.15L124.64 225.15L123.62 225.92Q117.71 223.87 115.39 215.64L115.39 215.64Q114.88 214.10 114.88 212.81L114.88 212.81L114.11 178.38Q113.08 164.24 108.20 153.70L108.20 153.70Q107.17 147.79 117.45 154.22L117.45 154.22Q120.02 156.02 121.05 156.79L121.05 156.79Q128.24 156.79 131.33 149.59L131.33 149.59Q134.93 141.37 135.70 140.08L135.70 140.08Q139.81 126.98 139.81 122.35L139.81 122.35Q144.18 119.52 153.17 124.15L153.17 124.15Q158.06 126.46 159.08 129.03L159.08 129.03L158.57 131.09L134.15 154.22Q159.60 150.88 175.27 143.42L175.27 143.42Q181.44 143.68 191.21 149.59L191.21 149.59Q200.20 154.73 197.89 158.59L197.89 158.59Q192.49 168.10 193.26 190.71L193.26 190.71Q194.29 213.33 191.47 222.32L191.47 222.32Q190.44 224.89 189.15 227.46L189.15 227.46Q187.35 231.83 183.75 233.63L183.75 233.63Q183.24 233.89 182.73 233.89L182.73 233.89Q179.90 234.15 178.10 230.80L178.10 230.80Q177.84 230.29 177.33 229.52L177.33 229.52ZM179.64 159.10L179.64 159.10Q178.62 157.05 178.36 156.79L178.36 156.79Q177.07 155.50 169.88 155.50L169.88 155.50Q168.59 155.76 158.31 158.07L158.31 158.07Q157.03 158.33 156.00 158.59L156.00 158.59L126.19 163.98L125.42 183.52Q143.41 177.61 145.72 177.09L145.72 177.09Q160.88 173.75 167.05 181.46L167.05 181.46Q167.05 183.77 164.99 184.54L164.99 184.54Q160.63 186.60 125.93 189.94L125.93 189.94L126.70 209.22L152.91 203.82Q157.03 203.31 160.63 203.31L160.63 203.31Q163.19 203.31 170.39 206.90L170.39 206.90Q173.99 208.70 176.56 208.70L176.56 208.70Q180.41 200.99 179.90 168.10L179.90 168.10Q179.90 162.19 179.64 159.10ZM92.26 148.05L92.26 148.05L87.89 147.54L71.70 135.71L70.93 163.98L69.65 217.95Q69.65 223.35 63.99 227.72L63.99 227.72Q63.48 227.98 62.97 228.49L62.97 228.49Q57.83 227.98 55.26 217.70L55.26 217.70Q54.74 216.16 54.74 215.64L54.74 215.64Q51.66 205.88 56.03 189.94L56.03 189.94Q58.85 178.63 59.11 172.72L59.11 172.72L61.42 121.32L61.17 121.07Q45.75 152.93 13.62 181.46L13.62 181.46L10.02 182.23L9.25 181.20Q9.77 179.66 10.28 178.89L10.28 178.89Q35.21 143.94 39.84 136.74L39.84 136.74Q52.17 117.21 58.34 99.73L58.34 99.73Q56.54 99.73 40.86 103.33L40.86 103.33Q25.19 106.67 17.99 99.99L17.99 99.99Q17.99 98.19 21.07 96.91L21.07 96.91Q46.00 92.80 61.94 87.14L61.94 87.14L62.45 57.33Q61.68 37.28 53.46 28.03L53.46 28.03Q53.46 23.66 57.83 22.38L57.83 22.38Q65.02 24.18 75.56 32.40L75.56 32.40Q78.90 35.23 78.90 40.11L78.90 40.11Q73.50 52.45 72.73 79.17L72.73 79.17Q72.47 82.00 72.47 83.03L72.47 83.03Q79.16 81.23 85.32 81.74L85.32 81.74L87.89 82.26Q104.60 86.63 78.13 94.08L78.13 94.08L72.47 95.62Q72.22 107.19 71.19 129.03L71.19 129.03L86.09 132.89Q94.32 136.23 94.32 143.94L94.32 143.94Q94.32 147.54 92.26 148.05Z" stroke="#000" fill="black" /></svg>